<?xml version="1.0" encoding="iso-8859-1"?>
<!-- Generator: Adobe Illustrator 21.0.2, SVG Export Plug-In . SVG Version: 6.00 Build 0)  -->
<svg version="1.1" id="Layer_1" xmlns="http://www.w3.org/2000/svg" xmlns:xlink="http://www.w3.org/1999/xlink" x="0px" y="0px"
	 viewBox="0 0 40 40" style="enable-background:new 0 0 40 40;" xml:space="preserve">
<path style="fill:#FFFFFF;" d="M30.5,33.5c0-1.103-0.897-2-2-2s-2,0.897-2,2h-15c0-1.103-0.897-2-2-2s-2,0.897-2,2h-6v-27h35v27
	H30.5z"/>
<path style="fill:#4788C7;" d="M36,7v26h-5.05c-0.232-1.14-1.242-2-2.45-2c-1.207,0-2.217,0.86-2.45,2h-14.1
	c-0.232-1.14-1.242-2-2.45-2c-1.207,0-2.217,0.86-2.45,2H2V7H36 M37,6H1v28h7v-0.5C8,32.672,8.672,32,9.5,32s1.5,0.672,1.5,1.5V34
	h16v-0.5c0-0.828,0.672-1.5,1.5-1.5s1.5,0.672,1.5,1.5V34h7V6L37,6z"/>
<polygon style="fill:#FFFFFF;" points="19.648,32 19,34 26.208,34 26.208,32 "/>
<polygon style="fill:#FFFFFF;" points="35,21.187 35,28.604 37,28.604 37,21 "/>
<circle style="fill:#98CCFD;" cx="13" cy="16" r="3.5"/>
<path style="fill:#98CCFD;" d="M13,13c1.654,0,3,1.346,3,3s-1.346,3-3,3s-3-1.346-3-3S11.346,13,13,13 M13,12c-2.209,0-4,1.791-4,4
	s1.791,4,4,4s4-1.791,4-4S15.209,12,13,12L13,12z"/>
<path style="fill:#98CCFD;" d="M7.522,26.5c0.253-2.8,2.613-5,5.478-5s5.224,2.2,5.478,5H7.522z"/>
<path style="fill:#98CCFD;" d="M13,22c2.415,0,4.435,1.721,4.9,4H8.1C8.565,23.721,10.585,22,13,22 M13,21c-3.314,0-6,2.686-6,6h12
	C19,23.686,16.314,21,13,21L13,21z"/>
<polygon style="fill:#98CCFD;" points="29.045,37.318 26.217,37.718 25.723,34.905 23.2,33.566 24.455,31 23.2,28.434 
	25.723,27.095 26.217,24.282 29.045,24.682 31.098,22.696 33.151,24.682 35.979,24.282 36.473,27.095 38.996,28.434 37.741,31 
	38.996,33.566 36.473,34.905 35.979,37.718 33.151,37.318 31.098,39.304 "/>
<path style="fill:#4788C7;" d="M31.098,23.391l1.53,1.48l0.351,0.34l0.484-0.068l2.107-0.298l0.368,2.096l0.084,0.481l0.432,0.229
	l1.88,0.997l-0.935,1.912L37.185,31l0.215,0.439l0.935,1.912l-1.88,0.997l-0.432,0.229l-0.084,0.481l-0.368,2.096l-2.107-0.298
	l-0.484-0.068l-0.351,0.34l-1.53,1.48l-1.53-1.48l-0.351-0.34l-0.484,0.068l-2.107,0.298l-0.368-2.096l-0.084-0.481l-0.432-0.229
	l-1.88-0.997l0.935-1.912L25.011,31l-0.215-0.439l-0.935-1.912l1.88-0.997l0.432-0.229l0.084-0.481l0.368-2.096l2.107,0.298
	l0.484,0.068l0.351-0.34L31.098,23.391 M31.098,22l-2.225,2.152l-3.065-0.434l-0.535,3.049l-2.735,1.451L23.898,31l-1.36,2.781
	l2.735,1.451l0.535,3.049l3.065-0.434L31.098,40l2.225-2.152l3.065,0.434l0.535-3.049l2.735-1.451L38.298,31l1.36-2.781
	l-2.735-1.451l-0.535-3.049l-3.065,0.434L31.098,22L31.098,22z"/>
<path style="fill:#4788C7;" d="M36.5,17L36.5,17c0.275,0,0.5,0.225,0.5,0.5v4c0,0.275-0.225,0.5-0.5,0.5l0,0
	c-0.275,0-0.5-0.225-0.5-0.5v-4C36,17.225,36.225,17,36.5,17z"/>
<path style="fill:#4788C7;" d="M18.5,33h1c0.275,0,0.5,0.225,0.5,0.5l0,0c0,0.275-0.225,0.5-0.5,0.5h-1c-0.275,0-0.5-0.225-0.5-0.5
	l0,0C18,33.225,18.225,33,18.5,33z"/>
<path style="fill:#4788C7;" d="M22.5,16h9c0.275,0,0.5,0.225,0.5,0.5l0,0c0,0.275-0.225,0.5-0.5,0.5h-9c-0.275,0-0.5-0.225-0.5-0.5
	l0,0C22,16.225,22.225,16,22.5,16z"/>
<path style="fill:#4788C7;" d="M28.5,21h-6c-0.275,0-0.5-0.225-0.5-0.5l0,0c0-0.275,0.225-0.5,0.5-0.5h6c0.275,0,0.5,0.225,0.5,0.5
	l0,0C29,20.775,28.775,21,28.5,21z"/>
</svg>
